Coordinates
version=1
nRows=35
nColumns=38
inDegrees=no

Units are S.I. units (second, meters, Newtons, ...)
If the header above contains a line with 'inDegrees', this indicates whether rotational values are in degrees (yes) or radians (no).

endheader
time	pelvis_tilt	pelvis_list	pelvis_rotation	pelvis_tx	pelvis_ty	pelvis_tz	hip_flexion_r	hip_adduction_r	hip_rotation_r	knee_angle_r	ankle_angle_r	subtalar_angle_r	mtp_angle_r	hip_flexion_l	hip_adduction_l	hip_rotation_l	knee_angle_l	ankle_angle_l	subtalar_angle_l	mtp_angle_l	lumbar_extension	lumbar_bending	lumbar_rotation	arm_flex_r	arm_add_r	arm_rot_r	elbow_flex_r	pro_sup_r	wrist_flex_r	wrist_dev_r	arm_flex_l	arm_add_l	arm_rot_l	elbow_flex_l	pro_sup_l	wrist_flex_l	wrist_dev_l
2.075	0.480171	0.0651713	-3.0919	-0.172685	0.432381	0.035766	2.06055	-0.434413	0.120473	2.09422	0.506841	0	0	2.06203	-0.19689	0.121328	2.09421	0.501389	0	0	-0.199858	0.0913241	-0.0161349	1.56699	-0.438265	0.933829	1.7771	1.36696	0	0	1.56859	-0.235049	0.909188	1.67485	1.5505	0	0
2.08498	0.481371	0.0650101	-3.0913	-0.172421	0.43204	0.0359403	2.06323	-0.4342	0.121725	2.09421	0.50661	0	0	2.06417	-0.19665	0.119973	2.0942	0.501358	0	0	-0.198414	0.0911637	-0.0167348	1.56666	-0.438447	0.933121	1.77673	1.36653	0	0	1.56854	-0.234722	0.909173	1.67419	1.55066	0	0
2.09495	0.482764	0.0648705	-3.09064	-0.172137	0.431672	0.0361088	2.06621	-0.4341	0.122955	2.0942	0.50633	0	0	2.06661	-0.196349	0.118578	2.09418	0.501328	0	0	-0.196735	0.0910242	-0.0173592	1.56632	-0.438636	0.932353	1.77633	1.36602	0	0	1.56847	-0.234384	0.909144	1.67349	1.55078	0	0
2.10493	0.484386	0.0647409	-3.08994	-0.171831	0.431275	0.0362714	2.06957	-0.434102	0.124172	2.09418	0.505996	0	0	2.06938	-0.195988	0.117142	2.09415	0.501299	0	0	-0.194789	0.0908922	-0.0180036	1.56597	-0.438806	0.931507	1.77588	1.36544	0	0	1.5684	-0.234046	0.90909	1.67275	1.55086	0	0
2.1149	0.48612	0.0646217	-3.08922	-0.171507	0.430862	0.036427	2.07312	-0.434186	0.125369	2.09417	0.505615	0	0	2.07233	-0.195594	0.115706	2.09413	0.501272	0	0	-0.192717	0.0907726	-0.0186474	1.56559	-0.438948	0.930646	1.77542	1.36483	0	0	1.56832	-0.233749	0.909018	1.67202	1.5509	0	0
2.12488	0.487837	0.0645105	-3.0885	-0.171174	0.43045	0.036574	2.0767	-0.434324	0.126536	2.09414	0.5052	0	0	2.07529	-0.1952	0.114304	2.0941	0.501246	0	0	-0.190675	0.0906663	-0.0192675	1.5652	-0.439055	0.929834	1.77496	1.36422	0	0	1.56823	-0.233527	0.908939	1.67134	1.55089	0	0
2.13486	0.48952	0.0643934	-3.08782	-0.170831	0.430045	0.0367119	2.08026	-0.43449	0.127677	2.09412	0.504756	0	0	2.07821	-0.19482	0.112938	2.09406	0.501222	0	0	-0.188691	0.0905593	-0.0198507	1.56479	-0.439108	0.929073	1.77449	1.36364	0	0	1.56814	-0.233387	0.908858	1.67071	1.55084	0	0
2.14483	0.491054	0.0642687	-3.08719	-0.170484	0.429662	0.0368398	2.08366	-0.43466	0.128776	2.09409	0.504301	0	0	2.08095	-0.194477	0.111631	2.09402	0.501202	0	0	-0.186899	0.0904542	-0.0203784	1.56437	-0.439095	0.9284	1.77398	1.36311	0	0	1.56803	-0.233343	0.908794	1.67014	1.55074	0	0
2.15481	0.492459	0.0641256	-3.08662	-0.170134	0.429304	0.036959	2.08691	-0.434826	0.129832	2.09406	0.503841	0	0	2.08351	-0.194162	0.110361	2.09398	0.501186	0	0	-0.185277	0.0903429	-0.0208515	1.56393	-0.438989	0.927767	1.77339	1.36264	0	0	1.56791	-0.233373	0.908754	1.66956	1.55059	0	0
2.16478	0.493535	0.0639865	-3.0861	-0.169788	0.428993	0.0370675	2.08972	-0.43498	0.130812	2.09402	0.503408	0	0	2.08565	-0.193899	0.109187	2.09393	0.501172	0	0	-0.184054	0.0902576	-0.0212468	1.56348	-0.438803	0.927262	1.77273	1.36227	0	0	1.56779	-0.233498	0.908761	1.66901	1.55036	0	0
2.17476	0.494146	0.0638703	-3.08563	-0.169452	0.428749	0.037165	2.09188	-0.435132	0.131689	2.09398	0.503029	0	0	2.08721	-0.193692	0.10814	2.09388	0.501156	0	0	-0.183383	0.090228	-0.0215546	1.563	-0.438547	0.926932	1.77202	1.36204	0	0	1.56766	-0.233718	0.908834	1.66849	1.55006	0	0
2.18474	0.494075	0.0638082	-3.08523	-0.169137	0.428596	0.0372486	2.09307	-0.435284	0.132418	2.09394	0.502748	0	0	2.08791	-0.193562	0.107283	2.09383	0.501136	0	0	-0.18351	0.0902959	-0.0217543	1.56252	-0.438254	0.926901	1.7713	1.36199	0	0	1.56751	-0.234056	0.908997	1.66805	1.54973	0	0
2.19471	0.493423	0.0637945	-3.08485	-0.168838	0.428532	0.0373206	2.09341	-0.435442	0.133022	2.09389	0.502553	0	0	2.08786	-0.193484	0.106586	2.09377	0.50111	0	0	-0.18432	0.0904584	-0.0218604	1.56201	-0.437944	0.927156	1.77061	1.36213	0	0	1.56736	-0.234493	0.909252	1.66769	1.5494	0	0
2.20469	0.492329	0.0638166	-3.08449	-0.168551	0.428548	0.0373849	2.09309	-0.435621	0.13353	2.09384	0.502425	0	0	2.08722	-0.193426	0.106	2.0937	0.501078	0	0	-0.18565	0.0907047	-0.0218985	1.5615	-0.437626	0.927652	1.76992	1.36247	0	0	1.5672	-0.235002	0.9096	1.66737	1.54911	0	0
2.21466	0.491063	0.0638527	-3.0841	-0.168264	0.428628	0.0374463	2.09246	-0.435836	0.133982	2.09379	0.502329	0	0	2.08631	-0.193341	0.105448	2.09364	0.501039	0	0	-0.187188	0.0910092	-0.0219046	1.56096	-0.437304	0.928289	1.76921	1.36298	0	0	1.56703	-0.235536	0.910025	1.66705	1.54891	0	0
2.22464	0.489784	0.0639023	-3.08367	-0.167972	0.428764	0.0375064	2.09172	-0.436095	0.134379	2.09373	0.502251	0	0	2.0853	-0.193199	0.104905	2.09356	0.500995	0	0	-0.188755	0.0913668	-0.0218943	1.56041	-0.437001	0.929045	1.76848	1.36368	0	0	1.56685	-0.236078	0.910516	1.6667	1.54889	0	0
2.23462	0.488507	0.0639763	-3.0832	-0.167675	0.428964	0.0375651	2.09085	-0.436403	0.134694	2.09366	0.5022	0	0	2.0842	-0.192994	0.104385	2.09348	0.500951	0	0	-0.190337	0.0917854	-0.0218673	1.55985	-0.436755	0.929976	1.76777	1.36456	0	0	1.56666	-0.236634	0.911078	1.66635	1.5491	0	0
2.24459	0.487256	0.0640626	-3.08267	-0.167374	0.429237	0.0376272	2.0899	-0.436785	0.134936	2.09359	0.502175	0	0	2.08303	-0.192694	0.103858	2.0934	0.500911	0	0	-0.191901	0.0922552	-0.0218444	1.55927	-0.436569	0.931033	1.76706	1.3656	0	0	1.56646	-0.237174	0.91171	1.66595	1.5495	0	0
2.25457	0.485932	0.0641561	-3.08207	-0.167075	0.4296	0.0376962	2.0887	-0.437258	0.135093	2.09352	0.502197	0	0	2.08162	-0.192286	0.103326	2.09331	0.500887	0	0	-0.19356	0.0927731	-0.021829	1.55868	-0.436459	0.932237	1.7663	1.36675	0	0	1.56626	-0.237689	0.91243	1.66545	1.55001	0	0
2.26454	0.484237	0.0642765	-3.08143	-0.166793	0.430095	0.0377693	2.08683	-0.437813	0.135121	2.09344	0.502323	0	0	2.07961	-0.191803	0.102867	2.09322	0.500868	0	0	-0.195651	0.0933598	-0.0217885	1.55808	-0.436476	0.933751	1.76559	1.36804	0	0	1.56604	-0.238224	0.913281	1.66495	1.55059	0	0
2.27452	0.48213	0.0644072	-3.08076	-0.166532	0.430737	0.0378468	2.08423	-0.438432	0.135037	2.09335	0.502563	0	0	2.07691	-0.191249	0.10248	2.09311	0.50085	0	0	-0.198218	0.093993	-0.0217172	1.55746	-0.436641	0.935612	1.76495	1.36947	0	0	1.56581	-0.238785	0.914288	1.66445	1.55123	0	0
2.2845	0.479587	0.0645249	-3.08006	-0.166294	0.431537	0.0379281	2.08085	-0.439085	0.134863	2.09327	0.502926	0	0	2.07346	-0.190635	0.102155	2.09301	0.500832	0	0	-0.201287	0.0946393	-0.0216076	1.55682	-0.436973	0.937853	1.76438	1.37105	0	0	1.56558	-0.239385	0.915473	1.66396	1.55193	0	0
2.29447	0.476816	0.0645749	-3.07934	-0.166072	0.432488	0.0380164	2.07699	-0.439741	0.134675	2.09318	0.503383	0	0	2.06947	-0.189942	0.101809	2.0929	0.500819	0	0	-0.204616	0.0952309	-0.0214821	1.55617	-0.437458	0.94039	1.76385	1.3728	0	0	1.56533	-0.240004	0.916837	1.66344	1.5527	0	0
2.30445	0.474068	0.0644991	-3.07859	-0.16586	0.433574	0.0381154	2.07301	-0.440374	0.134549	2.0931	0.503898	0	0	2.06522	-0.189144	0.101345	2.09279	0.500818	0	0	-0.20792	0.0956965	-0.0213743	1.55551	-0.43807	0.943097	1.76329	1.37469	0	0	1.56507	-0.240616	0.918372	1.66281	1.55354	0	0
2.31442	0.471667	0.0642368	-3.07779	-0.165647	0.434772	0.0382281	2.06937	-0.440965	0.134568	2.09302	0.504424	0	0	2.06108	-0.188198	0.100646	2.09267	0.500844	0	0	-0.210822	0.0959612	-0.0213303	1.55484	-0.438757	0.945799	1.76259	1.37667	0	0	1.56481	-0.241183	0.920057	1.66196	1.55443	0	0
2.3244	0.469778	0.0637556	-3.07696	-0.165427	0.436072	0.0383535	2.0663	-0.441486	0.134773	2.09296	0.504942	0	0	2.05724	-0.187098	0.099656	2.09256	0.500898	0	0	-0.21313	0.0959803	-0.0213717	1.55415	-0.439485	0.948402	1.7617	1.37867	0	0	1.56453	-0.241705	0.921881	1.66085	1.55534	0	0
2.33438	0.468367	0.063056	-3.07609	-0.165206	0.43748	0.038487	2.06375	-0.441911	0.135152	2.09291	0.505454	0	0	2.05365	-0.185873	0.0983922	2.09246	0.50098	0	0	-0.214877	0.0957452	-0.0214906	1.55345	-0.440242	0.950897	1.76064	1.38066	0	0	1.56425	-0.242211	0.92384	1.65953	1.55624	0	0
2.34435	0.467291	0.0621652	-3.07523	-0.164992	0.439014	0.0386213	2.0615	-0.442213	0.135654	2.09288	0.50598	0	0	2.05016	-0.184572	0.0969237	2.09236	0.501078	0	0	-0.21622	0.0952758	-0.0216555	1.55274	-0.441033	0.953335	1.75947	1.38264	0	0	1.56395	-0.242755	0.925939	1.6581	1.55715	0	0
2.35433	0.466558	0.0611033	-3.07438	-0.164787	0.440671	0.0387513	2.05955	-0.442386	0.136241	2.09289	0.506511	0	0	2.04679	-0.183206	0.0952801	2.09229	0.501186	0	0	-0.217142	0.094585	-0.0218589	1.55202	-0.441834	0.955651	1.75818	1.3846	0	0	1.56365	-0.243342	0.928155	1.65655	1.55806	0	0
2.3643	0.466099	0.0599221	-3.07354	-0.164596	0.442454	0.0388709	2.05778	-0.442437	0.136835	2.09294	0.507048	0	0	2.04351	-0.181794	0.0935383	2.09224	0.501297	0	0	-0.217711	0.093725	-0.0220807	1.55128	-0.442638	0.957837	1.75681	1.38649	0	0	1.56333	-0.243993	0.930472	1.65494	1.55894	0	0
2.37428	0.465727	0.058693	-3.0727	-0.16443	0.444377	0.0389738	2.05591	-0.4424	0.137332	2.09303	0.507604	0	0	2.04013	-0.180357	0.0918071	2.09222	0.501403	0	0	-0.218133	0.0927774	-0.0222938	1.55053	-0.443454	0.959941	1.75546	1.3883	0	0	1.56301	-0.244743	0.93289	1.65337	1.55979	0	0
2.38425	0.465202	0.0574852	-3.07189	-0.164299	0.446454	0.039053	2.05357	-0.442311	0.137631	2.09317	0.508199	0	0	2.0364	-0.178928	0.0901995	2.09225	0.501503	0	0	-0.218671	0.0918248	-0.0224644	1.54978	-0.444312	0.962053	1.75424	1.39005	0	0	1.56267	-0.245637	0.935422	1.65198	1.56062	0	0
2.39423	0.464438	0.0563302	-3.07107	-0.164211	0.448688	0.0391048	2.05066	-0.442204	0.137679	2.09336	0.508829	0	0	2.03226	-0.177521	0.088761	2.09233	0.501594	0	0	-0.219411	0.0909069	-0.0225805	1.54901	-0.445211	0.964168	1.7532	1.39176	0	0	1.56233	-0.246678	0.938064	1.6508	1.56141	0	0
2.40421	0.463401	0.0552428	-3.07026	-0.164168	0.451071	0.0391262	2.04714	-0.44211	0.137439	2.09361	0.509482	0	0	2.02768	-0.176149	0.0875122	2.09246	0.501677	0	0	-0.220385	0.0900411	-0.0226341	1.54823	-0.446139	0.966255	1.75234	1.39341	0	0	1.56198	-0.24785	0.940809	1.64982	1.56217	0	0
2.41418	0.462001	0.0542381	-3.06946	-0.164175	0.453604	0.0391146	2.04289	-0.442054	0.136876	2.09389	0.510153	0	0	2.02258	-0.174839	0.0864848	2.09265	0.501752	0	0	-0.221686	0.0892463	-0.0226028	1.54744	-0.447103	0.968334	1.75173	1.395	0	0	1.56162	-0.249153	0.943662	1.64911	1.56289	0	0
